<svg width="38.000000" height="53.000000" viewBox="0 0 38 53" fill="none" xmlns="http://www.w3.org/2000/svg" xmlns:xlink="http://www.w3.org/1999/xlink">
	<desc>
			Created with Pixso.
	</desc>
	<defs/>
	<rect id="Frame 1486" width="38.000000" height="53.000000" fill="#FFFFFF" fill-opacity="0"/>
	<path id="Vector" d="M31.7383 27.9688C31.8008 35.0859 37.9336 37.4453 38 37.4766C37.9492 37.6484 37.0195 40.8516 34.7695 44.1641C32.8242 47.0234 30.8047 49.8828 27.625 49.9375C24.5 50 23.4961 48.0703 19.9258 48.0703C16.3516 48.0703 15.2344 49.8828 12.2773 50C9.20703 50.1172 6.87109 46.8984 4.91016 44.0469C0.902344 38.2109 -2.16016 27.5625 1.95312 20.3672C3.99609 16.7969 7.64453 14.5391 11.6094 14.4766C14.6211 14.4219 17.4688 16.5234 19.3086 16.5234C21.1523 16.5234 24.6094 13.9922 28.2461 14.3672C29.7656 14.4297 34.0391 14.9844 36.7812 19.0234C36.5586 19.1641 31.6836 22.0234 31.7383 27.9688ZM25.8633 10.5078C27.4922 8.51562 28.5898 5.75 28.2891 3C25.9414 3.09375 23.1016 4.57812 21.418 6.5625C19.9062 8.32031 18.582 11.1328 18.9414 13.8359C21.5586 14.0391 24.2344 12.4922 25.8633 10.5078Z" fill="#F2F4F7" fill-opacity="1.000000" fill-rule="nonzero"/>
</svg>
